# xmcd CD database file
#
# Track frame offsets:
#	150
#	25775
#	44577
#	70626
#	85182
#	100699
#	113163
#	126212
#	144704
#
# Disc length: 2076 seconds
#
# Revision: 0
# Processed by: cddbd v1.5.2PL0 Copyright (c) Steve Scherf et al.
# Submitted via: Feurio! 1.68 - http://www.feurio.com
#
DISCID=74081a09
DTITLE=Various Artist - Frank F's Hard To Finds
DYEAR=1900
DGENRE=R&B
TTITLE0=Spyder Turner - Stand By Me (1967)
TTITLE1=Curtis Mayfield - Tripping Out
TTITLE2=Harold Melvin and The Blue Notes - I Should Be Your Lover
TTITLE3=Eddie Kendricks - Tell Her Love Has Felt The Need
TTITLE4=The Dramatics - Falling
TTITLE5=Ronnie McNeir - I'm A Lover
TTITLE6=Donald Jenkins and The Daylighters - Elephant Walk
TTITLE7=The Temptations - Just My Imagination (Live)
TTITLE8=Un Named Artist - Closer (Slow Drag)
EXTD=
EXTT0=
EXTT1=
EXTT2=
EXTT3=
EXTT4=
EXTT5=
EXTT6=
EXTT7=
EXTT8=
PLAYORDER=
